<svg width="186" height="55" viewBox="0 0 186 55" fill="none" xmlns="http://www.w3.org/2000/svg">
<g clip-path="url(#clip0_17:126)">
<path d="M179.021 55H6.50238C2.91775 55 0 52.074 0 48.4921V6.49825C0 2.915 2.91775 0 6.50238 0H179.021C182.604 0 185.625 2.915 185.625 6.49825V48.4921C185.625 52.074 182.604 55 179.021 55Z" fill="#A6A6A6"/>
<path d="M184.294 48.4934C184.294 51.4029 181.937 53.7596 179.022 53.7596H6.50226C3.58863 53.7596 1.22363 51.4029 1.22363 48.4934V6.49676C1.22363 3.58863 3.58863 1.22363 6.50226 1.22363H179.021C181.937 1.22363 184.293 3.58863 184.293 6.49676L184.294 48.4934Z" fill="black"/>
<path d="M41.426 27.203C41.3861 22.7714 45.0546 20.6154 45.2224 20.515C43.1447 17.4859 39.9245 17.072 38.7929 17.039C36.0882 16.7544 33.4647 18.6574 32.087 18.6574C30.6817 18.6574 28.5601 17.0665 26.2735 17.1133C23.331 17.1587 20.5782 18.8623 19.0685 21.5078C15.9527 26.9019 18.2765 34.8288 21.2616 39.1889C22.7549 41.3243 24.4997 43.7085 26.7836 43.6247C29.018 43.5325 29.8526 42.2002 32.549 42.2002C35.2206 42.2002 36.0044 43.6247 38.3336 43.571C40.7316 43.5325 42.2414 41.426 43.6824 39.2714C45.408 36.8239 46.101 34.4135 46.1285 34.2898C46.0721 34.2705 41.4714 32.5147 41.426 27.203Z" fill="white"/>
<path d="M37.0262 14.1707C38.2279 12.6678 39.0502 10.6232 38.8219 8.54834C37.0825 8.62534 34.9073 9.75147 33.6547 11.2213C32.5464 12.5166 31.5564 14.6396 31.8122 16.6361C33.7661 16.7818 35.7722 15.6502 37.0262 14.1707Z" fill="white"/>
<path d="M73.7616 43.318H70.639L68.9285 37.9432H62.983L61.3536 43.318H58.3135L64.204 25.0195H67.8422L73.7616 43.318ZM68.4129 35.6882L66.866 30.91C66.7024 30.4219 66.3957 29.2724 65.9434 27.4629H65.8883C65.7082 28.2412 65.4181 29.3907 65.0193 30.91L63.5 35.6882H68.4129Z" fill="white"/>
<path d="M88.9095 36.5584C88.9095 38.8024 88.3031 40.5762 87.0904 41.8783C86.0041 43.0374 84.6552 43.6163 83.0451 43.6163C81.3071 43.6163 80.0586 42.992 79.2982 41.7435H79.2432V48.6942H76.3117V34.467C76.3117 33.0563 76.2746 31.6084 76.2031 30.1234H78.7812L78.9449 32.2148H78.9999C79.9775 30.639 81.4611 29.8525 83.4521 29.8525C85.0086 29.8525 86.308 30.4672 87.3475 31.6978C88.3897 32.9298 88.9095 34.5495 88.9095 36.5584ZM85.923 36.6657C85.923 35.3814 85.6342 34.3227 85.054 33.4894C84.4201 32.6204 83.569 32.1859 82.502 32.1859C81.7787 32.1859 81.1215 32.4279 80.5344 32.905C79.9459 33.3863 79.5609 34.0147 79.3807 34.7929C79.29 35.1559 79.2446 35.4529 79.2446 35.6867V37.8867C79.2446 38.8464 79.5389 39.6563 80.1274 40.3177C80.7159 40.979 81.4804 41.309 82.4209 41.309C83.525 41.309 84.3844 40.8828 84.999 40.033C85.615 39.1819 85.923 38.0599 85.923 36.6657Z" fill="white"/>
<path d="M104.086 36.5584C104.086 38.8024 103.479 40.5762 102.265 41.8783C101.18 43.0374 99.8316 43.6163 98.2215 43.6163C96.4835 43.6163 95.235 42.992 94.476 41.7435H94.421V48.6942H91.4895V34.467C91.4895 33.0563 91.4524 31.6084 91.3809 30.1234H93.959L94.1226 32.2148H94.1776C95.1539 30.639 96.6375 29.8525 98.6299 29.8525C100.185 29.8525 101.484 30.4672 102.527 31.6978C103.565 32.9298 104.086 34.5495 104.086 36.5584ZM101.099 36.6657C101.099 35.3814 100.809 34.3227 100.229 33.4894C99.5951 32.6204 98.7467 32.1859 97.6784 32.1859C96.9537 32.1859 96.2979 32.4279 95.7094 32.905C95.1209 33.3863 94.7372 34.0147 94.5571 34.7929C94.4677 35.1559 94.421 35.4529 94.421 35.6867V37.8867C94.421 38.8464 94.7152 39.6563 95.301 40.3177C95.8895 40.9777 96.654 41.309 97.5972 41.309C98.7014 41.309 99.5607 40.8828 100.175 40.033C100.791 39.1819 101.099 38.0599 101.099 36.6657Z" fill="white"/>
<path d="M121.053 38.1863C121.053 39.7429 120.513 41.0092 119.428 41.9869C118.236 43.0552 116.576 43.5887 114.444 43.5887C112.475 43.5887 110.896 43.2092 109.701 42.4489L110.38 40.0055C111.667 40.7837 113.08 41.1742 114.618 41.1742C115.722 41.1742 116.582 40.924 117.199 40.4262C117.814 39.9285 118.12 39.2602 118.12 38.427C118.12 37.6845 117.867 37.0589 117.36 36.5515C116.855 36.0441 116.012 35.5725 114.835 35.1366C111.632 33.9417 110.031 32.1914 110.031 29.8896C110.031 28.3853 110.592 27.152 111.716 26.1922C112.835 25.2311 114.328 24.7512 116.195 24.7512C117.86 24.7512 119.244 25.0413 120.348 25.6202L119.615 28.01C118.584 27.449 117.418 27.1685 116.113 27.1685C115.082 27.1685 114.276 27.4228 113.698 27.9288C113.21 28.3812 112.965 28.9326 112.965 29.5857C112.965 30.309 113.245 30.9071 113.806 31.3773C114.294 31.8118 115.181 32.2821 116.468 32.7895C118.042 33.4233 119.198 34.1645 119.942 35.0142C120.683 35.8612 121.053 36.9213 121.053 38.1863Z" fill="white"/>
<path d="M130.745 32.3233H127.514V38.7294C127.514 40.3588 128.083 41.1728 129.225 41.1728C129.749 41.1728 130.183 41.1274 130.527 41.0367L130.608 43.2628C130.03 43.4787 129.27 43.5873 128.328 43.5873C127.17 43.5873 126.266 43.234 125.613 42.5286C124.962 41.8218 124.635 40.6366 124.635 38.9714V32.3206H122.71V30.1206H124.635V27.7047L127.514 26.8357V30.1206H130.745V32.3233Z" fill="white"/>
<path d="M145.325 36.6119C145.325 38.64 144.745 40.3051 143.587 41.6073C142.373 42.9479 140.761 43.6161 138.753 43.6161C136.817 43.6161 135.275 42.974 134.126 41.6898C132.976 40.4055 132.401 38.7844 132.401 36.8305C132.401 34.7859 132.993 33.1111 134.179 31.809C135.363 30.5055 136.961 29.8538 138.97 29.8538C140.906 29.8538 142.464 30.4959 143.639 31.7815C144.764 33.0286 145.325 34.6388 145.325 36.6119ZM142.283 36.7068C142.283 35.4899 142.024 34.4463 141.497 33.5759C140.882 32.5226 140.004 31.9974 138.865 31.9974C137.687 31.9974 136.792 32.524 136.177 33.5759C135.65 34.4476 135.391 35.5078 135.391 36.7618C135.391 37.9786 135.65 39.0223 136.177 39.8913C136.811 40.9445 137.696 41.4698 138.839 41.4698C139.958 41.4698 140.837 40.9335 141.471 39.8638C142.011 38.9769 142.283 37.9223 142.283 36.7068Z" fill="white"/>
<path d="M154.853 32.7015C154.563 32.6479 154.254 32.6204 153.929 32.6204C152.898 32.6204 152.1 33.0095 151.539 33.7892C151.051 34.4767 150.807 35.3457 150.807 36.3948V43.3179H147.876L147.904 34.2787C147.904 32.7579 147.867 31.3733 147.794 30.1248H150.347L150.455 32.6493H150.536C150.845 31.7817 151.333 31.0832 152.001 30.5593C152.655 30.0877 153.36 29.8525 154.12 29.8525C154.391 29.8525 154.636 29.8718 154.853 29.9062V32.7015Z" fill="white"/>
<path d="M167.964 36.0965C167.964 36.6218 167.93 37.0645 167.857 37.4261H159.063C159.097 38.7296 159.522 39.7265 160.339 40.414C161.08 41.0286 162.038 41.3366 163.215 41.3366C164.517 41.3366 165.705 41.129 166.774 40.7124L167.233 42.7474C165.984 43.2919 164.51 43.5628 162.809 43.5628C160.763 43.5628 159.157 42.9605 157.989 41.7574C156.823 40.5543 156.238 38.9386 156.238 36.9119C156.238 34.9223 156.781 33.2654 157.869 31.944C159.008 30.5333 160.546 29.8279 162.482 29.8279C164.384 29.8279 165.823 30.5333 166.801 31.944C167.575 33.0646 167.964 34.4506 167.964 36.0965ZM165.169 35.3361C165.188 34.4671 164.997 33.7164 164.6 33.0825C164.092 32.2671 163.313 31.8601 162.264 31.8601C161.305 31.8601 160.526 32.2575 159.93 33.055C159.442 33.6889 159.152 34.4493 159.063 35.3348H165.169V35.3361Z" fill="white"/>
<path d="M67.4439 13.7622C67.4439 15.3806 66.9586 16.5988 65.9892 17.417C65.0913 18.1718 63.8153 18.55 62.1626 18.55C61.3431 18.55 60.6418 18.5142 60.0547 18.4427V9.60009C60.8206 9.47634 61.6456 9.41309 62.5366 9.41309C64.1109 9.41309 65.2976 9.75546 66.0978 10.4402C66.9943 11.2143 67.4439 12.3212 67.4439 13.7622ZM65.9246 13.8021C65.9246 12.753 65.6468 11.9486 65.0913 11.3876C64.5358 10.828 63.7246 10.5475 62.6562 10.5475C62.2024 10.5475 61.8161 10.5777 61.4957 10.641V17.3633C61.6731 17.3908 61.9976 17.4032 62.4692 17.4032C63.5719 17.4032 64.4231 17.0966 65.0226 16.4833C65.6221 15.8701 65.9246 14.9763 65.9246 13.8021Z" fill="white"/>
<path d="M75.4997 15.1759C75.4997 16.1728 75.2151 16.9896 74.6459 17.6303C74.0491 18.2889 73.2585 18.6176 72.2712 18.6176C71.3197 18.6176 70.5621 18.3027 69.997 17.6702C69.4332 17.0391 69.1514 16.2429 69.1514 15.2832C69.1514 14.2794 69.4415 13.4558 70.0245 12.8164C70.6075 12.1771 71.3912 11.8567 72.3785 11.8567C73.33 11.8567 74.0945 12.1716 74.6734 12.8027C75.2234 13.4159 75.4997 14.2079 75.4997 15.1759ZM74.0051 15.2227C74.0051 14.6246 73.8759 14.1117 73.6187 13.6841C73.3162 13.1671 72.8859 12.9086 72.3262 12.9086C71.7474 12.9086 71.3074 13.1671 71.0049 13.6841C70.7464 14.1117 70.6185 14.6328 70.6185 15.2488C70.6185 15.8469 70.7477 16.3598 71.0049 16.7874C71.317 17.3044 71.7515 17.5629 72.3125 17.5629C72.8625 17.5629 73.2942 17.3003 73.605 16.7737C73.8717 16.3378 74.0051 15.8208 74.0051 15.2227Z" fill="white"/>
<path d="M86.3024 11.9885L84.2743 18.4703H82.9543L82.1141 15.6557C81.901 14.953 81.7278 14.2545 81.593 13.5615H81.5669C81.4418 14.2738 81.2685 14.9709 81.0458 15.6557L80.1534 18.4703H78.8183L76.9111 11.9885H78.392L79.1249 15.0699C79.3023 15.7987 79.448 16.493 79.5649 17.1503H79.591C79.6983 16.6085 79.8756 15.9183 80.1259 15.0837L81.0458 11.9899H82.22L83.1014 15.0177C83.3145 15.756 83.4878 16.4669 83.6211 17.1517H83.661C83.7586 16.4848 83.9058 15.7739 84.101 15.0177L84.8875 11.9899H86.3024V11.9885Z" fill="white"/>
<path d="M93.7723 18.4704H92.3313V14.7579C92.3313 13.6139 91.8968 13.0419 91.0251 13.0419C90.5974 13.0419 90.2523 13.1987 89.9842 13.5135C89.7188 13.8284 89.5841 14.1997 89.5841 14.6245V18.469H88.1431V13.8408C88.1431 13.2715 88.1252 12.6542 88.0908 11.9859H89.3572L89.4246 12.9993H89.4644C89.6322 12.6844 89.8824 12.4245 90.2111 12.2169C90.6016 11.9749 91.0388 11.8525 91.5173 11.8525C92.1223 11.8525 92.6255 12.0478 93.0257 12.4397C93.5234 12.9195 93.7723 13.6359 93.7723 14.5874V18.4704Z" fill="white"/>
<path d="M97.7463 18.4703H96.3066V9.0144H97.7463V18.4703Z" fill="white"/>
<path d="M106.23 15.1759C106.23 16.1728 105.946 16.9896 105.376 17.6303C104.78 18.2889 103.988 18.6176 103.002 18.6176C102.049 18.6176 101.291 18.3027 100.727 17.6702C100.164 17.0391 99.8818 16.2429 99.8818 15.2832C99.8818 14.2794 100.172 13.4558 100.755 12.8164C101.338 12.1771 102.122 11.8567 103.108 11.8567C104.06 11.8567 104.824 12.1716 105.404 12.8027C105.954 13.4159 106.23 14.2079 106.23 15.1759ZM104.734 15.2227C104.734 14.6246 104.605 14.1117 104.348 13.6841C104.047 13.1671 103.615 12.9086 103.057 12.9086C102.476 12.9086 102.036 13.1671 101.735 13.6841C101.477 14.1117 101.349 14.6328 101.349 15.2488C101.349 15.8469 101.478 16.3598 101.735 16.7874C102.047 17.3044 102.482 17.5629 103.043 17.5629C103.593 17.5629 104.023 17.3003 104.334 16.7737C104.602 16.3378 104.734 15.8208 104.734 15.2227Z" fill="white"/>
<path d="M113.204 18.4704H111.91L111.803 17.7238H111.763C111.32 18.3192 110.689 18.6176 109.87 18.6176C109.258 18.6176 108.763 18.4209 108.39 18.0304C108.052 17.6757 107.883 17.2343 107.883 16.7104C107.883 15.9184 108.213 15.3148 108.877 14.8968C109.54 14.4788 110.472 14.2739 111.672 14.2836V14.1626C111.672 13.3087 111.224 12.8824 110.326 12.8824C109.687 12.8824 109.123 13.0433 108.636 13.3623L108.343 12.4163C108.946 12.0437 109.69 11.8567 110.567 11.8567C112.261 11.8567 113.111 12.7504 113.111 14.5379V16.9249C113.111 17.5726 113.142 18.0882 113.204 18.4704ZM111.708 16.2429V15.2433C110.119 15.2158 109.324 15.6517 109.324 16.5496C109.324 16.8878 109.415 17.1408 109.6 17.3099C109.786 17.4791 110.022 17.5629 110.304 17.5629C110.62 17.5629 110.916 17.4626 111.186 17.2632C111.456 17.0624 111.623 16.8081 111.685 16.4959C111.7 16.4258 111.708 16.3406 111.708 16.2429Z" fill="white"/>
<path d="M121.392 18.4703H120.113L120.045 17.4294H120.006C119.597 18.2214 118.901 18.6174 117.924 18.6174C117.143 18.6174 116.492 18.3108 115.977 17.6975C115.461 17.0843 115.204 16.2882 115.204 15.3105C115.204 14.2614 115.483 13.4117 116.044 12.7627C116.587 12.1577 117.253 11.8552 118.045 11.8552C118.915 11.8552 119.524 12.148 119.871 12.7352H119.898V9.0144H121.341V16.724C121.341 17.3552 121.357 17.9368 121.392 18.4703ZM119.898 15.7368V14.656C119.898 14.469 119.885 14.3178 119.858 14.2023C119.777 13.8558 119.603 13.5643 119.337 13.3292C119.069 13.094 118.746 12.9758 118.373 12.9758C117.836 12.9758 117.415 13.1889 117.106 13.6165C116.799 14.0442 116.644 14.59 116.644 15.2569C116.644 15.8977 116.791 16.4174 117.086 16.8175C117.399 17.2438 117.819 17.4569 118.346 17.4569C118.819 17.4569 119.197 17.2795 119.484 16.9234C119.762 16.5948 119.898 16.1988 119.898 15.7368Z" fill="white"/>
<path d="M133.717 15.1759C133.717 16.1728 133.432 16.9896 132.863 17.6303C132.266 18.2889 131.477 18.6176 130.488 18.6176C129.538 18.6176 128.78 18.3027 128.214 17.6702C127.65 17.0391 127.368 16.2429 127.368 15.2832C127.368 14.2794 127.658 13.4558 128.241 12.8164C128.824 12.1771 129.608 11.8567 130.597 11.8567C131.547 11.8567 132.313 12.1716 132.89 12.8027C133.44 13.4159 133.717 14.2079 133.717 15.1759ZM132.223 15.2227C132.223 14.6246 132.094 14.1117 131.837 13.6841C131.533 13.1671 131.104 12.9086 130.543 12.9086C129.966 12.9086 129.526 13.1671 129.222 13.6841C128.963 14.1117 128.835 14.6328 128.835 15.2488C128.835 15.8469 128.965 16.3598 129.222 16.7874C129.534 17.3044 129.968 17.5629 130.529 17.5629C131.079 17.5629 131.512 17.3003 131.823 16.7737C132.089 16.3378 132.223 15.8208 132.223 15.2227Z" fill="white"/>
<path d="M141.464 18.4704H140.025V14.7579C140.025 13.6139 139.59 13.0419 138.717 13.0419C138.289 13.0419 137.944 13.1987 137.678 13.5135C137.411 13.8284 137.277 14.1997 137.277 14.6245V18.469H135.835V13.8408C135.835 13.2715 135.819 12.6542 135.784 11.9859H137.049L137.117 12.9993H137.156C137.326 12.6844 137.576 12.4245 137.903 12.2169C138.295 11.9749 138.731 11.8525 139.211 11.8525C139.814 11.8525 140.318 12.0478 140.718 12.4397C141.217 12.9195 141.464 13.6359 141.464 14.5874V18.4704Z" fill="white"/>
<path d="M151.162 13.0679H149.576V16.2166C149.576 17.0169 149.858 17.417 150.416 17.417C150.674 17.417 150.889 17.395 151.058 17.3496L151.095 18.4428C150.81 18.55 150.436 18.6036 149.976 18.6036C149.407 18.6036 148.964 18.4304 148.643 18.0839C148.322 17.7374 148.162 17.1544 148.162 16.3363V13.0679H147.215V11.9885H148.162V10.8005L149.574 10.3743V11.9871H151.161V13.0679H151.162Z" fill="white"/>
<path d="M158.79 18.4703H157.348V14.7853C157.348 13.6234 156.914 13.0418 156.043 13.0418C155.375 13.0418 154.918 13.3787 154.668 14.0524C154.626 14.194 154.601 14.3673 154.601 14.5708V18.4689H153.161V9.0144H154.601V12.9208H154.628C155.082 12.2099 155.732 11.8552 156.575 11.8552C157.172 11.8552 157.666 12.0504 158.058 12.4423C158.546 12.9304 158.79 13.6564 158.79 14.6162V18.4703Z" fill="white"/>
<path d="M166.66 14.9226C166.66 15.1811 166.641 15.3984 166.606 15.5757H162.285C162.304 16.2165 162.51 16.7046 162.91 17.0429C163.276 17.3454 163.748 17.4966 164.325 17.4966C164.965 17.4966 165.548 17.3949 166.073 17.19L166.298 18.191C165.684 18.4577 164.961 18.5911 164.123 18.5911C163.119 18.5911 162.329 18.2955 161.757 17.7042C161.182 17.113 160.897 16.3196 160.897 15.3241C160.897 14.3465 161.163 13.5325 161.698 12.8835C162.256 12.1905 163.011 11.844 163.964 11.844C164.896 11.844 165.604 12.1905 166.083 12.8835C166.469 13.4335 166.66 14.1141 166.66 14.9226ZM165.285 14.55C165.296 14.1224 165.201 13.7539 165.006 13.4431C164.756 13.043 164.375 12.8422 163.859 12.8422C163.389 12.8422 163.005 13.0375 162.712 13.4294C162.473 13.7415 162.332 14.1141 162.285 14.55H165.285Z" fill="white"/>
</g>
<defs>
<clipPath id="clip0_17:126">
<rect width="185.625" height="55" fill="white"/>
</clipPath>
</defs>
</svg>
