<svg width="38" height="38" viewBox="0 0 38 38" fill="none" xmlns="http://www.w3.org/2000/svg">
<path d="M4.55833 9.11667C7.07583 9.11667 9.11667 7.07583 9.11667 4.55833C9.11667 2.04083 7.07583 0 4.55833 0C2.04083 0 0 2.04083 0 4.55833C0 7.07583 2.04083 9.11667 4.55833 9.11667Z" fill="white"/>
<path d="M13.4208 12.5708V37.8604H21.2729V25.3541C21.2729 22.0541 21.8937 18.8583 25.9854 18.8583C30.0208 18.8583 30.0708 22.6312 30.0708 25.5625V37.8625H37.9271V23.9937C37.9271 17.1812 36.4604 11.9458 28.4979 11.9458C24.675 11.9458 22.1125 14.0437 21.0646 16.0291H20.9583V12.5708H13.4208ZM0.625 12.5708H8.48958V37.8604H0.625V12.5708Z" fill="white"/>
</svg>
