<svg width="70" height="70" viewBox="0 0 70 70" fill="none" xmlns="http://www.w3.org/2000/svg">
<path d="M70 35C70 44.2826 66.3125 53.185 59.7487 59.7487C53.185 66.3125 44.2826 70 35 70C25.7174 70 16.815 66.3125 10.2513 59.7487C3.68749 53.185 0 44.2826 0 35C0 25.7174 3.68749 16.815 10.2513 10.2513C16.815 3.68749 25.7174 0 35 0C44.2826 0 53.185 3.68749 59.7487 10.2513C66.3125 16.815 70 25.7174 70 35V35ZM24.045 26.3944H27.6544C28.2581 26.3944 28.7394 25.9 28.8181 25.3006C29.2119 22.4306 31.1806 20.3394 34.6894 20.3394C37.6906 20.3394 40.4381 21.84 40.4381 25.4494C40.4381 28.2275 38.8019 29.505 36.2162 31.4475C33.2719 33.5869 30.94 36.085 31.1063 40.1406L31.1194 41.09C31.124 41.377 31.2412 41.6508 31.4458 41.8521C31.6505 42.0535 31.9261 42.1663 32.2131 42.1662H35.7612C36.0513 42.1662 36.3295 42.051 36.5346 41.8459C36.7398 41.6408 36.855 41.3626 36.855 41.0725V40.6131C36.855 37.4719 38.0494 36.5575 41.2738 34.1119C43.9381 32.0862 46.7163 29.8375 46.7163 25.1169C46.7163 18.5063 41.1338 15.3125 35.0219 15.3125C29.4788 15.3125 23.4063 17.8937 22.9906 25.3137C22.9846 25.455 23.0076 25.5961 23.0581 25.7281C23.1087 25.8602 23.1857 25.9806 23.2844 26.0818C23.3832 26.183 23.5016 26.2629 23.6324 26.3167C23.7632 26.3705 23.9036 26.3969 24.045 26.3944V26.3944ZM34.2169 54.5825C36.8856 54.5825 38.7188 52.8587 38.7188 50.5269C38.7188 48.1119 36.8813 46.4144 34.2169 46.4144C31.6619 46.4144 29.8025 48.1119 29.8025 50.5269C29.8025 52.8587 31.6619 54.5825 34.2213 54.5825H34.2169Z" fill="#DB9247"/>
</svg>
